<svg xmlns="http://www.w3.org/2000/svg" viewBox="0 0 142 127"><defs><style>.cls-1{fill:#85bc25;}.cls-2{fill:#fff;}</style></defs><title>Asset 1</title><g id="Layer_2" data-name="Layer 2"><g id="Layer_1-2" data-name="Layer 1"><path class="cls-1" d="M140.43,28a2.57,2.57,0,0,0-3.38,1.38,15.91,15.91,0,0,1-12,9.59V27.46c7.42-.79,12.17-5.37,12.17-11.82,0-7.33-11-15.64-14.49-15.64-5.15,0-21.31,9.59-21.31,23.1A21.22,21.22,0,0,0,119.85,44.2v7.53a2.58,2.58,0,1,0,5.15,0V44.19A21.05,21.05,0,0,0,141.8,31.38,2.61,2.61,0,0,0,140.43,28ZM106.52,23.1c0-10.16,13.08-17.63,16-17.9,2.11.63,9.47,6.57,9.47,10.44,0,4.83-4.51,6.2-7,6.58v-7.9a2.58,2.58,0,1,0-5.15,0v7.75a8.23,8.23,0,0,1-4.22-3.1,2.56,2.56,0,0,0-3.59-.6,2.61,2.61,0,0,0-.6,3.62,13.12,13.12,0,0,0,8.41,5.41V38.95A16,16,0,0,1,106.52,23.1Z"/><path class="cls-2" d="M8.68,113.94v2H7.34a3.18,3.18,0,0,1,.18,1.05,2.93,2.93,0,0,1-1,2.26,3.71,3.71,0,0,1-2.57.87,4.25,4.25,0,0,1-1.5-.23,1,1,0,0,0-.21.66c0,.48.34.75.91.75H5.27c1.87,0,3,.91,3,2.6,0,2-1.55,3.14-4,3.14-2.69,0-4.1-1-4.1-2.78a1.81,1.81,0,0,1,.91-1.58A2.25,2.25,0,0,1,0,120.69a2.36,2.36,0,0,1,.93-1.91,2.94,2.94,0,0,1-.62-1.84,2.86,2.86,0,0,1,1-2.3A3.84,3.84,0,0,1,4,113.74a4.47,4.47,0,0,1,1.3.2ZM3.33,123a1,1,0,0,0-.92,1c0,.8.71,1.23,1.85,1.23S6,124.84,6,124c0-.66-.43-1-1.28-1Zm.61-4.63a1.45,1.45,0,0,0,0-2.89,1.45,1.45,0,0,0,0,2.89Z"/><path class="cls-2" d="M16.88,117V123h-2l-.14-1.1a2.86,2.86,0,0,1-2.58,1.3,2.52,2.52,0,0,1-2.74-2.6c0-1.66,1-2.42,2.8-2.71l2.33-.43v-.34c0-.91-.43-1.37-1.26-1.37a1.23,1.23,0,0,0-1.35,1.19H9.7a3.34,3.34,0,0,1,3.6-3.17C15.51,113.74,16.88,114.88,16.88,117ZM14.56,119l-1.8.37c-.68.16-1,.5-1,1s.39.89,1.05.89a1.6,1.6,0,0,0,1.44-.82,2.19,2.19,0,0,0,.32-1.19Z"/><path class="cls-2" d="M24,116.17a2.88,2.88,0,0,0-1.8.53,2.15,2.15,0,0,0-.73,1.67V123H19.18v-9h2l.21,1.44A2.55,2.55,0,0,1,24,113.85Z"/><path class="cls-2" d="M34.13,110v13h-2L32,121.76a3.24,3.24,0,0,1-2.87,1.41,3.82,3.82,0,0,1-3-1.35,5.32,5.32,0,0,1,0-6.72,3.83,3.83,0,0,1,3-1.35,3.17,3.17,0,0,1,2.71,1.18v-5Zm-6.84,8.48A2.34,2.34,0,0,0,29.57,121a2.18,2.18,0,0,0,1.6-.66,2.5,2.5,0,0,0,.68-1.84v-.11a2.5,2.5,0,0,0-.69-1.8,2.18,2.18,0,0,0-1.59-.68A2.34,2.34,0,0,0,27.29,118.45Z"/><path class="cls-2" d="M44.61,118.45v.71H38.33a2.05,2.05,0,0,0,2.17,2,1.73,1.73,0,0,0,1.82-1.05h2.25a4,4,0,0,1-4.13,3,4.36,4.36,0,0,1-3.26-1.28,4.79,4.79,0,0,1-1.23-3.42,4.7,4.7,0,0,1,1.25-3.38,4.23,4.23,0,0,1,3.24-1.34C42.92,113.74,44.61,115.36,44.61,118.45Zm-2.33-.89a1.8,1.8,0,0,0-1.91-1.89,2,2,0,0,0-2,1.89Z"/><path class="cls-2" d="M54.06,117.11V123H51.73v-5.36c0-1.09-.43-1.62-1.28-1.62s-1.6.78-1.6,2.21V123h-2.3v-9h2l.18,1.18a2.55,2.55,0,0,1,2.44-1.37C53,113.74,54.06,115,54.06,117.11Z"/><path class="cls-2" d="M66.08,116.59h-2.3a.93.93,0,0,0-1-1c-.64,0-1,.34-1,.89s.36.82,1.58,1c2.14.36,2.94,1.23,2.94,2.74,0,1.94-1.48,2.94-3.49,2.94-2.19,0-3.47-1.14-3.53-2.94h2.28c0,.73.46,1.11,1.3,1.11S64,121,64,120.48s-.36-.89-1.64-1.12c-2-.34-2.89-1.19-2.89-2.67a2.73,2.73,0,0,1,.87-2.08,3.38,3.38,0,0,1,2.46-.86A3,3,0,0,1,66.08,116.59Z"/><path class="cls-2" d="M76.13,118.45v.71H69.84a2.05,2.05,0,0,0,2.17,2,1.73,1.73,0,0,0,1.82-1.05h2.25a4,4,0,0,1-4.13,3,4.36,4.36,0,0,1-3.26-1.28,4.8,4.8,0,0,1-1.23-3.42,4.7,4.7,0,0,1,1.25-3.38,4.23,4.23,0,0,1,3.24-1.34C74.44,113.74,76.13,115.36,76.13,118.45Zm-2.33-.89a1.8,1.8,0,0,0-1.91-1.89,2,2,0,0,0-2,1.89Z"/><path class="cls-2" d="M82.94,116.17a2.88,2.88,0,0,0-1.8.53,2.15,2.15,0,0,0-.73,1.67V123H78.1v-9h2l.21,1.44a2.55,2.55,0,0,1,2.64-1.53Z"/><path class="cls-2" d="M92.52,113.94l-3.28,9H86.89l-3.26-9h2.49l1.76,5.54.18.78.18-.78L90,113.94Z"/><path class="cls-2" d="M96.48,111.28a1.41,1.41,0,1,1-1.41-1.37A1.39,1.39,0,0,1,96.48,111.28Zm-.25,2.66v9H93.91v-9Z"/><path class="cls-2" d="M106.76,117.13h-2.25a1.87,1.87,0,0,0-1.87-1.28,2,2,0,0,0-1.57.75,2.79,2.79,0,0,0-.62,1.87A2.35,2.35,0,0,0,102.7,121a1.85,1.85,0,0,0,1.83-1.26h2.26a4,4,0,0,1-4.2,3.39,4.31,4.31,0,0,1-3.26-1.3,5.19,5.19,0,0,1,0-6.79,4.32,4.32,0,0,1,3.26-1.34A3.86,3.86,0,0,1,106.76,117.13Z"/><path class="cls-2" d="M116.67,118.45v.71h-6.29a2.05,2.05,0,0,0,2.17,2,1.73,1.73,0,0,0,1.82-1.05h2.25a4,4,0,0,1-4.13,3,4.36,4.36,0,0,1-3.26-1.28,4.79,4.79,0,0,1-1.23-3.42,4.7,4.7,0,0,1,1.25-3.38,4.23,4.23,0,0,1,3.24-1.34C115,113.74,116.67,115.36,116.67,118.45Zm-2.33-.89a1.8,1.8,0,0,0-1.91-1.89,2,2,0,0,0-2,1.89Z"/><path class="cls-2" d="M124.78,116.59h-2.3a.93.93,0,0,0-1-1c-.64,0-1,.34-1,.89s.36.82,1.58,1c2.14.36,2.94,1.23,2.94,2.74,0,1.94-1.48,2.94-3.49,2.94-2.19,0-3.47-1.14-3.53-2.94h2.28c0,.73.46,1.11,1.3,1.11s1.12-.3,1.12-.86-.36-.89-1.64-1.12c-2-.34-2.89-1.19-2.89-2.67a2.73,2.73,0,0,1,.87-2.08,3.38,3.38,0,0,1,2.46-.86A3,3,0,0,1,124.78,116.59Z"/><path class="cls-2" d="M96,49.46c0,5.07-2.81,11-6.67,15.21l-3-1a28.66,28.66,0,0,0,2.49-9,5.81,5.81,0,0,1-5.38-5.78,6.16,6.16,0,0,1,6.26-6.1C93.31,42.72,96,45.42,96,49.46Z"/><path class="cls-2" d="M32.36,46.14V56.28H11V68H29.47V78.22H11V91.44H32.36v10.14H0V46.14Z"/><path class="cls-2" d="M77.76,43.77v57.81h-9L68,96.19c-2.89,4.2-7.22,6.26-12.93,6.26a17.32,17.32,0,0,1-13.49-6,21.6,21.6,0,0,1-5.38-15,21.41,21.41,0,0,1,5.38-14.89,17.37,17.37,0,0,1,13.57-6c5.46,0,9.55,1.74,12.2,5.23v-22ZM46.93,81.46c0,6.73,4.41,11.32,10.28,11.32a9.89,9.89,0,0,0,7.23-2.93,11,11,0,0,0,3.05-8.16v-.48a11,11,0,0,0-3.13-8,9.92,9.92,0,0,0-7.15-3C51.43,70.22,46.93,74.81,46.93,81.46Z"/><path class="cls-2" d="M124.1,73.23H113.74c-.08-3.09-1.69-4.59-4.66-4.59s-4.5,1.5-4.5,4,1.61,3.64,7.15,4.59c9.63,1.59,13.25,5.46,13.25,12.2,0,8.63-6.66,13.07-15.74,13.07-9.88,0-15.66-5.07-15.9-13.07h10.28c.08,3.25,2.09,4.91,5.86,4.91,3.21,0,5.06-1.35,5.06-3.8,0-2.61-1.61-4-7.39-5-8.91-1.5-13-5.31-13-11.88a12.06,12.06,0,0,1,3.93-9.27q4-3.8,11.08-3.8C117.75,60.55,123.77,65.62,124.1,73.23Z"/></g></g></svg>